<svg xmlns="http://www.w3.org/2000/svg"  viewBox="0 0 100 100" width="100px" height="100px"><circle cx="13" cy="29" r="2" fill="#ee3e54"/><circle cx="76" cy="14" r="1" fill="#f1bc19"/><circle cx="50" cy="50" r="37" fill="#fce0a2"/><circle cx="83" cy="16" r="4" fill="#f1bc19"/><circle cx="87" cy="24" r="2" fill="#ee3e54"/><circle cx="81" cy="77" r="2" fill="#fbcd59"/><circle cx="14" cy="63" r="4" fill="#fbcd59"/><circle cx="25" cy="87" r="2" fill="#ee3e54"/><circle cx="64.5" cy="78.5" r="2.5" fill="#fff"/><circle cx="17" cy="47" r="1" fill="#f1bc19"/><circle cx="83" cy="42" r="1" fill="#fff"/><ellipse cx="61.76" cy="51.123" fill="#ee3e54" rx="1.462" ry="3.299" transform="rotate(-66.814 61.764 51.125)"/><path fill="none" stroke="#472b29" stroke-linecap="round" stroke-linejoin="round" stroke-miterlimit="10" stroke-width=".5" d="M61.574,52.716c0,0,1.996,0.27,3.218-0.295c0,0-0.547-1.984-2.457-2.643"/><ellipse cx="60.779" cy="52.297" fill="#ee3e54" rx="1.462" ry="3.299" transform="rotate(-42.39 60.777 52.295)"/><path fill="none" stroke="#472b29" stroke-linecap="round" stroke-linejoin="round" stroke-miterlimit="10" stroke-width=".5" d="M58.434,50.354c0,0,0.294,4.147,4.569,4.379c0,0,0.37-4.338-4.276-4.91"/><path fill="#fdfcef" d="M61.574,60.002c0,8.237-5.236,14.917-11.7,14.917s-11.7-6.681-11.7-14.917 c0-3.048,0.72-5.879,1.954-8.243c2.088-4.025,5.674-6.675,9.746-6.675c4.189,0,7.862,2.808,9.927,7.026 C60.925,54.398,61.574,57.107,61.574,60.002z"/><circle cx="38.174" cy="28.705" r="2.34" fill="#fefdef"/><circle cx="38.174" cy="28.705" r="2.34" fill="none" stroke="#472b29" stroke-linejoin="round" stroke-miterlimit="10" stroke-width="1.4"/><circle cx="61.574" cy="28.705" r="2.34" fill="#fefdef"/><circle cx="61.574" cy="28.705" r="2.34" fill="none" stroke="#472b29" stroke-linejoin="round" stroke-miterlimit="10" stroke-width="1.4"/><path fill="#ee3e54" d="M59.802,52.111c-4.423,3.206-15.023,5.92-16.655,4.967c-1.755-1.024-2.925-4.241-2.925-5.265 l-0.094-0.053c2.088-4.025,5.674-6.675,9.746-6.675C54.063,45.085,57.737,47.893,59.802,52.111z"/><path fill="none" stroke="#472b29" stroke-linecap="round" stroke-linejoin="round" stroke-miterlimit="10" stroke-width=".5" d="M59.802,52.111c-4.423,3.206-15.023,5.92-16.655,4.967c-1.755-1.024-2.925-4.241-2.925-5.265l-0.094-0.053 c2.088-4.025,5.674-6.675,9.746-6.675C54.063,45.085,57.737,47.893,59.802,52.111z"/><path fill="none" stroke="#472b29" stroke-miterlimit="10" stroke-width="1.4" d="M61.574,60.002 c0,8.237-5.236,14.917-11.7,14.917s-11.7-6.681-11.7-14.917c0-3.048,0.72-5.879,1.954-8.243c2.088-4.025,5.674-6.675,9.746-6.675 c4.189,0,7.862,2.808,9.927,7.026C60.925,54.398,61.574,57.107,61.574,60.002z"/><path fill="#fdfcef" d="M66.254,39.235c0-1.598-0.917-2.978-2.252-3.653c0.405-0.635,0.643-1.388,0.643-2.197 c0-2.262-1.833-4.095-4.095-4.095c-0.061,0-0.121,0.006-0.182,0.009c0.022-0.195,0.036-0.393,0.036-0.594 c0-2.908-2.357-5.265-5.265-5.265s-5.265,2.357-5.265,5.265c0-2.908-2.357-5.265-5.265-5.265s-5.265,2.357-5.265,5.265 c0,0.201,0.013,0.399,0.036,0.594c-0.061-0.003-0.121-0.009-0.182-0.009c-2.262,0-4.095,1.833-4.095,4.095 c0,0.809,0.238,1.561,0.643,2.197c-1.334,0.675-2.252,2.056-2.252,3.653c0,1.602,0.922,2.985,2.262,3.658 c-0.676,0.73-1.092,1.704-1.092,2.777c0,2.262,1.833,4.095,4.095,4.095c0.587,0,1.143-0.126,1.648-0.347 c0.961,1.275,2.483,2.102,4.202,2.102c0.935,0,1.812-0.246,2.573-0.674c0.644,0.769,1.611,1.259,2.692,1.259 c1.082,0,2.048-0.49,2.692-1.259c0.761,0.428,1.638,0.674,2.573,0.674c1.719,0,3.241-0.828,4.202-2.102 c0.504,0.222,1.061,0.347,1.648,0.347c2.262,0,4.095-1.833,4.095-4.095c0-1.073-0.416-2.047-1.092-2.777 C65.332,42.219,66.254,40.837,66.254,39.235z"/><circle cx="47.827" cy="66.437" r="1.755" fill="#c07853"/><circle cx="51.922" cy="66.437" r="1.755" fill="#c07853"/><circle cx="46.949" cy="39.82" r=".877" fill="#836f61"/><circle cx="52.799" cy="39.82" r=".877" fill="#836f61"/><path fill="#836f61" d="M51.044,41.282c0-0.484-0.524-0.585-1.17-0.585c-0.646,0-1.17,0.101-1.17,0.585 s0.524,1.17,1.17,1.17C50.521,42.452,51.044,41.767,51.044,41.282z"/><path fill="none" stroke="#472b29" stroke-linejoin="round" stroke-miterlimit="10" stroke-width="1.4" d="M66.254,39.235 c0-1.598-0.917-2.978-2.252-3.653c0.405-0.635,0.643-1.388,0.643-2.197c0-2.262-1.833-4.095-4.095-4.095 c-0.061,0-0.121,0.006-0.182,0.009c0.022-0.195,0.036-0.393,0.036-0.594c0-2.908-2.357-5.265-5.265-5.265s-5.265,2.357-5.265,5.265 c0-2.908-2.357-5.265-5.265-5.265s-5.265,2.357-5.265,5.265c0,0.201,0.013,0.399,0.036,0.594c-0.061-0.003-0.121-0.009-0.182-0.009 c-2.262,0-4.095,1.833-4.095,4.095c0,0.809,0.238,1.561,0.643,2.197c-1.334,0.675-2.252,2.056-2.252,3.653 c0,1.602,0.922,2.985,2.262,3.658c-0.676,0.73-1.092,1.704-1.092,2.777c0,2.262,1.833,4.095,4.095,4.095 c0.587,0,1.143-0.126,1.648-0.347c0.961,1.275,2.483,2.102,4.202,2.102c0.935,0,1.812-0.246,2.573-0.674 c0.644,0.769,1.611,1.259,2.692,1.259c1.082,0,2.048-0.49,2.692-1.259c0.761,0.428,1.638,0.674,2.573,0.674 c1.719,0,3.241-0.828,4.202-2.102c0.504,0.222,1.061,0.347,1.648,0.347c2.262,0,4.095-1.833,4.095-4.095 c0-1.073-0.416-2.047-1.092-2.777C65.332,42.219,66.254,40.837,66.254,39.235z"/><path fill="#fdfcef" d="M45.487,67.315h-5.265c-2.1,0-3.802,1.702-3.802,3.803l0,0c0,2.1,1.702,3.802,3.802,3.802h5.265 c2.1,0,3.802-1.702,3.802-3.802l0,0C49.289,69.017,47.587,67.315,45.487,67.315z"/><path fill="#fdfcef" d="M59.527,67.315h-5.265c-2.1,0-3.802,1.702-3.802,3.803l0,0c0,2.1,1.702,3.802,3.802,3.802h5.265 c2.1,0,3.803-1.702,3.803-3.802l0,0C63.329,69.017,61.627,67.315,59.527,67.315z"/><circle cx="54.554" cy="71.995" r="2.632" fill="#c07853"/><circle cx="45.194" cy="71.995" r="2.632" fill="#c07853"/><path fill="none" stroke="#472b29" stroke-miterlimit="10" stroke-width="1.4" d="M45.487,67.315h-5.265 c-2.1,0-3.802,1.702-3.802,3.803l0,0c0,2.1,1.702,3.802,3.802,3.802h5.265c2.1,0,3.802-1.702,3.802-3.802l0,0 C49.289,69.017,47.587,67.315,45.487,67.315z"/><path fill="none" stroke="#472b29" stroke-miterlimit="10" stroke-width="1.4" d="M59.527,67.315h-5.265 c-2.1,0-3.802,1.702-3.802,3.803l0,0c0,2.1,1.702,3.802,3.802,3.802h5.265c2.1,0,3.803-1.702,3.803-3.802l0,0 C63.329,69.017,61.627,67.315,59.527,67.315z"/><circle cx="47.827" cy="66.437" r="1.755" fill="none" stroke="#472b29" stroke-linecap="round" stroke-linejoin="round" stroke-miterlimit="10" stroke-width=".5"/><circle cx="51.922" cy="66.437" r="1.755" fill="none" stroke="#472b29" stroke-linecap="round" stroke-linejoin="round" stroke-miterlimit="10" stroke-width=".5"/><circle cx="54.554" cy="71.995" r="2.632" fill="none" stroke="#472b29" stroke-linecap="round" stroke-linejoin="round" stroke-miterlimit="10" stroke-width=".5"/><circle cx="45.194" cy="71.995" r="2.632" fill="none" stroke="#472b29" stroke-linecap="round" stroke-linejoin="round" stroke-miterlimit="10" stroke-width=".5"/><path fill="#fdfcef" d="M44.609,61.465c-0.491,0-0.947,0.133-1.354,0.347c-0.507-1.995-2.017-3.857-3.911-3.857 c-1.939,0-2.925,1.964-2.925,4.388c0,2.423,1.571,4.388,3.51,4.388c0.869,0,1.663-0.221,2.275-0.679 c0.528,0.763,1.407,1.264,2.405,1.264c1.615,0,2.925-1.31,2.925-2.925C47.534,62.775,46.224,61.465,44.609,61.465z"/><path fill="none" stroke="#472b29" stroke-linejoin="round" stroke-miterlimit="10" stroke-width="1.4" d="M44.609,61.465 c-0.491,0-0.947,0.133-1.354,0.347c-0.507-1.995-2.017-3.857-3.911-3.857c-1.939,0-2.925,1.964-2.925,4.388 c0,2.423,1.571,4.388,3.51,4.388c0.869,0,1.663-0.221,2.275-0.679c0.528,0.763,1.407,1.264,2.405,1.264 c1.615,0,2.925-1.31,2.925-2.925C47.534,62.775,46.224,61.465,44.609,61.465z"/><path fill="#fdfcef" d="M60.404,57.955c-1.894,0-3.404,1.862-3.911,3.857c-0.407-0.214-0.862-0.347-1.354-0.347 c-1.615,0-2.925,1.31-2.925,2.925c0,1.615,1.31,2.925,2.925,2.925c0.998,0,1.877-0.501,2.405-1.264 c0.613,0.459,1.406,0.679,2.275,0.679c1.939,0,3.51-1.964,3.51-4.387C63.329,59.919,62.343,57.955,60.404,57.955z"/><path fill="none" stroke="#472b29" stroke-linejoin="round" stroke-miterlimit="10" stroke-width="1.4" d="M60.404,57.955 c-1.894,0-3.404,1.862-3.911,3.857c-0.407-0.214-0.862-0.347-1.354-0.347c-1.615,0-2.925,1.31-2.925,2.925 c0,1.615,1.31,2.925,2.925,2.925c0.998,0,1.877-0.501,2.405-1.264c0.613,0.459,1.406,0.679,2.275,0.679 c1.939,0,3.51-1.964,3.51-4.387C63.329,59.919,62.343,57.955,60.404,57.955z"/><circle cx="46.949" cy="39.82" r=".877" fill="none" stroke="#472b29" stroke-linecap="round" stroke-linejoin="round" stroke-miterlimit="10" stroke-width=".5"/><circle cx="52.799" cy="39.82" r=".877" fill="none" stroke="#472b29" stroke-linecap="round" stroke-linejoin="round" stroke-miterlimit="10" stroke-width=".5"/><path fill="none" stroke="#472b29" stroke-linecap="round" stroke-linejoin="round" stroke-miterlimit="10" stroke-width=".5" d="M51.044,41.282c0-0.484-0.524-0.585-1.17-0.585c-0.646,0-1.17,0.101-1.17,0.585s0.524,1.17,1.17,1.17 C50.521,42.452,51.044,41.767,51.044,41.282z"/><path fill="none" stroke="#472b29" stroke-linecap="round" stroke-linejoin="round" stroke-miterlimit="10" stroke-width=".5" d="M49.874,42.528v0.94c0,0.731-0.593,1.323-1.323,1.323l0,0c-0.731,0-1.323-0.593-1.323-1.323"/><path fill="none" stroke="#472b29" stroke-linecap="round" stroke-linejoin="round" stroke-miterlimit="10" stroke-width=".5" d="M49.874,42.528v0.94c0,0.731,0.593,1.323,1.323,1.323h0c0.731,0,1.323-0.593,1.323-1.323"/><line x1="45.444" x2="47.227" y1="37.232" y2="36.022" fill="none" stroke="#472b29" stroke-linecap="round" stroke-linejoin="round" stroke-miterlimit="10" stroke-width=".5"/><line x1="54.276" x2="52.492" y1="37.232" y2="36.022" fill="none" stroke="#472b29" stroke-linecap="round" stroke-linejoin="round" stroke-miterlimit="10" stroke-width=".5"/><path fill="none" stroke="#472b29" stroke-linecap="round" stroke-linejoin="round" stroke-miterlimit="10" stroke-width=".5" d="M43.947,33.672c-2.407,0-4.358-1.951-4.358-4.358"/><path fill="none" stroke="#472b29" stroke-linecap="round" stroke-linejoin="round" stroke-miterlimit="10" stroke-width=".5" d="M40.269,36.542c-0.486,0.231-1.029,0.36-1.603,0.36c-2.066,0-3.742-1.675-3.742-3.742"/><path fill="none" stroke="#472b29" stroke-linecap="round" stroke-linejoin="round" stroke-miterlimit="10" stroke-width=".5" d="M40.27,41.513c-0.71,0.903-1.813,1.482-3.051,1.482c-2.143,0-3.88-1.737-3.88-3.88"/><path fill="none" stroke="#472b29" stroke-linecap="round" stroke-linejoin="round" stroke-miterlimit="10" stroke-width=".5" d="M44.045,51.139c-2.089,0-3.782-1.693-3.782-3.782c0-0.99,0.381-1.892,1.004-2.566"/><path fill="none" stroke="#472b29" stroke-linecap="round" stroke-linejoin="round" stroke-miterlimit="10" stroke-width=".5" d="M55.745,33.672c2.407,0,4.358-1.951,4.358-4.358"/><path fill="none" stroke="#472b29" stroke-linecap="round" stroke-linejoin="round" stroke-miterlimit="10" stroke-width=".5" d="M59.423,36.542c0.486,0.231,1.029,0.36,1.603,0.36c2.066,0,3.742-1.675,3.742-3.742"/><path fill="none" stroke="#472b29" stroke-linecap="round" stroke-linejoin="round" stroke-miterlimit="10" stroke-width=".5" d="M59.422,41.513c0.71,0.903,1.813,1.482,3.051,1.482c2.143,0,3.88-1.737,3.88-3.88"/><path fill="none" stroke="#472b29" stroke-linecap="round" stroke-linejoin="round" stroke-miterlimit="10" stroke-width=".5" d="M55.647,51.139c2.089,0,3.782-1.693,3.782-3.782c0-0.99-0.381-1.892-1.004-2.566"/></svg>